ply
format ascii 1.0
element vertex 72
property float x
property float y
property float z
property float nx
property float ny
property float nz
property uchar red
property uchar green
property uchar blue
property uchar alpha
element face 140
property list uchar int vertex_index
end_header
-109.102 -33.8165 -51.4114 1.47941 -0.608472 1.34319 0 0 255 255
-132.157 -45.9764 17.4071 0.923453 0.239948 0.351758 0 0 255 255
-135.983 2.26921 -5.45715 1.77744 -0.267417 1.24971 0 0 255 255
-14.3118 50.7642 -56.4363 0.236451 -0.245331 0.33096 0 0 255 255
18.9013 19.6062 -203.684 -0.00899752 0.0142411 0.999858 255 0 0 255
10.9366 -8.61901 -203.119 -0.017835 0.0250285 0.999528 255 0 0 255
-10.5273 -4.50065 -203.605 -0.00912929 0.014402 0.999855 255 0 0 255
-15.1176 22.0935 -203.762 -0.00190074 0.00557814 0.999983 255 0 0 255
-91.9238 67.26 -24.0409 0.426735 -0.0308479 0.90385 0 0 255 255
-178.68 23.8669 78.9346 0.536267 0.241392 -0.808794 0 0 255 255
-180.868 -92.3294 61.7761 -0.315118 0.144445 -0.937996 0 0 255 255
-157.551 -122.248 49.3353 0.000393702 0.198597 -0.980081 0 0 255 255
-139.764 72.3619 123.282 0.583081 0.241458 -0.775702 0 0 255 255
-115.957 131.906 -6.78209 0.157248 -0.648206 1.67664 0 0 255 255
-125.146 203.026 21.5753 0.087145 -0.359228 0.929172 0 0 255 255
-32.5744 125.619 -17.0332 0.087145 -0.359228 0.929172 0 0 255 255
168.605 -64.3205 118.81 -0.544468 -0.064647 -0.836287 0 0 255 255
143.043 80.6261 124.248 -0.544468 -0.064647 -0.836287 0 0 255 255
40.43 7.93319 196.674 -0.544468 -0.064647 -0.836287 0 0 255 255
101.851 -93.8905 142.67 -0.413137 0.219542 -0.88381 0 0 255 255
38.9453 118.039 -11.5763 -0.117513 -0.484872 0.866654 0 0 255 255
105.158 -66.215 -48.7035 -0.180524 -0.15485 0.446537 0 0 255 255
90.1934 -167.454 -68.1486 -0.436228 0.895421 -0.089032 0 0 255 255
154.488 -135.668 -63.4922 -0.436228 0.895421 -0.089032 0 0 255 255
118.006 -144.186 29.5942 -0.436228 0.895421 -0.089032 0 0 255 255
71.3125 -168.241 2.86488 -0.410323 0.906545 -0.0990513 0 0 255 255
112.278 179.354 46.9771 -0.484206 -0.227655 0.844818 0 0 255 255
173.2 -62.6008 16.6939 -0.484206 -0.227655 0.844818 0 0 255 255
-17.7862 -151.29 45.4525 0.429117 -0.145757 0.428622 0 0 255 255
151.31 -104.034 -1.91571 -0.693504 0.0433825 0.719145 0 0 255 255
96.625 -119.266 105.741 -0.0302121 0.905361 -0.423566 0 0 255 255
-25.7336 -145.251 25.5987 -1.29033 1.96614 1.11453 0 0 255 255
-13.777 -80.3635 -75.0271 -0.0404869 0.0616918 0.0349706 0 0 255 255
-66.4368 -121.062 -4.24794 0.541268 0.826327 0.155607 0 0 255 255
164.777 -127.45 93.7007 -0.83415 0.464937 -0.296695 0 0 255 255
170.054 -147.978 46.6958 -0.83415 0.464937 -0.296695 0 0 255 255
202.171 -88.5103 49.5879 -0.83415 0.464937 -0.296695 0 0 255 255
-8.51178 113.105 164.998 -0.262828 0.107891 -0.958791 0 0 255 255
-109.315 12.5449 181.315 -0.262828 0.107891 -0.958791 0 0 255 255
-43.3272 7.97438 162.711 -0.262828 0.107891 -0.958791 0 0 255 255
11.6775 221.052 103.098 0.0732345 -0.733201 0.676057 0 0 255 255
22.105 -68.144 193.877 0.576703 0.637243 -0.51121 0 0 255 255
-34.85 -33.4956 172.816 0.576703 0.637243 -0.51121 0 0 255 255
7.69242 -132.418 97.4981 0.576703 0.637243 -0.51121 0 0 255 255
52.8851 -114.017 156.051 0.412629 0.72815 -0.547299 0 0 255 255
-94.3121 -125.24 102.731 0.447594 0.631565 -0.633076 0 0 255 255
-102.421 -61.4878 160.598 0.447594 0.631565 -0.633076 0 0 255 255
-147.134 -67.916 122.572 0.447594 0.631565 -0.633076 0 0 255 255
-169.408 -90.5328 91.0853 0.385465 0.598324 -0.702443 0 0 255 255
-163.288 119.762 -47.6253 0.476303 -0.824933 0.304337 0 0 255 255
-216.901 95.189 -30.3259 0.476303 -0.824933 0.304337 0 0 255 255
-177.985 143.684 40.2189 0.476303 -0.824933 0.304337 0 0 255 255
-134.571 176.506 6.19518 0.712013 -0.638156 0.292907 0 0 255 255
-8.11817 -20.3918 -51.7565 -0.00394826 0.0587254 0.998266 0 0 255 255
12.7352 -8.59543 -52.4171 0.0735567 0.181192 0.980693 0 0 255 255
-17.0589 33.7335 -55.3385 0.124103 0.0438821 0.991299 0 0 255 255
-40.8919 1.31106 -53.3464 -0.00525378 0.0651706 0.99786 0 0 255 255
4.12559 31.4522 -63.2171 -0.569846 -0.628172 0.529788 0 0 255 255
0.978003 19.9847 -92.8659 -0.346241 -0.862027 0.37017 255 0 0 255
-21.2265 27.6456 -95.7949 -0.346241 -0.862027 0.37017 255 0 0 255
8.91753 7.0736 -81.7657 -0.978472 -0.205639 0.0174897 0 0 255 255
-15.8842 -4.7228 -81.1051 -0.410713 0.754699 0.511609 0 0 255 255
-38.3294 13.2141 -98.8965 0.477757 0.843004 0.247168 255 0 0 255
4.23972 19.7268 -124.495 -0.592422 -0.80378 -0.0545379 255 0 0 255
-5.88468 27.3876 -127.424 -0.592422 -0.80378 -0.0545379 255 0 0 255
12.1409 0.966587 -122.199 -0.855586 -0.517565 0.00996479 255 0 0 255
-12.7345 -4.98075 -112.734 -0.430068 0.901401 -0.0501781 255 0 0 255
-22.9877 12.9561 -130.526 0.656866 0.685963 0.31302 255 0 0 255
10.8833 14.6964 -151.004 -0.113147 -0.980968 0.157795 255 0 0 255
-10.7907 17.1837 -151.082 -0.113147 -0.980968 0.157795 255 0 0 255
4.36331 -2.10379 -146.846 -0.886176 -0.33391 0.321242 255 0 0 255
-6.2003 2.01458 -147.332 -0.16976 0.971676 0.164403 255 0 0 255
3 0 1 2
3 2 3 0
3 4 5 6
3 6 7 4
3 8 3 2
3 9 10 11
3 11 12 9
3 13 14 15
3 15 8 13
3 16 17 18
3 18 19 16
3 3 8 15
3 3 15 20
3 3 20 21
3 22 23 24
3 24 25 22
3 20 26 27
3 27 21 20
3 28 21 22
3 21 27 29
3 21 29 23
3 21 23 22
3 30 28 25
3 25 24 30
3 28 31 32
3 32 21 28
3 0 33 1
3 0 21 32
3 32 33 0
3 27 26 17
3 17 16 27
3 26 18 17
3 24 23 29
3 30 24 29
3 34 35 36
3 36 16 34
3 29 27 36
3 36 35 29
3 36 27 16
3 35 34 30
3 30 29 35
3 16 19 34
3 37 38 39
3 26 20 40
3 40 37 26
3 37 39 18
3 18 26 37
3 2 13 8
3 41 42 43
3 43 44 41
3 42 41 18
3 18 39 42
3 44 30 19
3 19 18 41
3 41 44 19
3 37 40 38
3 45 46 47
3 47 48 45
3 49 50 51
3 51 52 49
3 1 10 9
3 9 2 1
3 1 11 10
3 14 20 15
3 14 40 20
3 14 38 40
3 11 48 47
3 47 12 11
3 11 28 45
3 45 48 11
3 45 43 42
3 45 42 46
3 42 39 38
3 38 46 42
3 43 45 28
3 47 46 38
3 38 12 47
3 13 2 49
3 49 52 13
3 2 9 50
3 50 49 2
3 9 12 51
3 51 50 9
3 52 51 12
3 52 14 13
3 12 38 14
3 14 52 12
3 53 54 21
3 53 21 0
3 0 3 55
3 0 55 56
3 53 0 56
3 57 55 3
3 57 3 21
3 57 21 54
3 57 58 59
3 59 55 57
3 57 54 60
3 60 58 57
3 54 53 61
3 61 60 54
3 56 62 61
3 61 53 56
3 55 59 62
3 62 56 55
3 58 63 64
3 64 59 58
3 58 60 65
3 65 63 58
3 60 61 66
3 66 65 60
3 62 67 66
3 66 61 62
3 59 64 67
3 67 62 59
3 63 68 69
3 69 64 63
3 63 65 70
3 70 68 63
3 65 66 71
3 71 70 65
3 71 66 67
3 67 64 69
3 69 71 67
3 68 4 7
3 7 69 68
3 68 70 5
3 5 4 68
3 70 71 6
3 6 5 70
3 69 7 6
3 6 71 69
3 30 44 43
3 43 28 30
3 33 32 31
3 33 31 28
3 33 28 1
3 22 25 28
3 1 28 11
3 19 30 34
